 <svg  version="1.0" xmlns="http://www.w3.org/2000/svg"  width="300.000000pt" height="171.000000pt" viewBox="0 0 300.000000 171.000000"  preserveAspectRatio="xMidYMid meet">  <g transform="translate(0.000000,171.000000) scale(0.100000,-0.100000)" fill="#ffffff" stroke="none"> <path d="M1955 1438 c-3 -7 -20 -68 -39 -135 l-35 -122 24 -48 23 -48 -43 -8 -43 -9 -55 -131 c-30 -73 -51 -135 -48 -140 4 -4 69 19 145 52 l137 60 15 -40 c9 -21 20 -39 25 -39 5 0 149 79 321 176 172 97 341 192 376 211 66 37 75 50 40 58 -13 2 -54 12 -93 20 -242 54 -717 155 -730 155 -9 0 -18 -6 -20 -12z m480 -108 c329 -69 318 -65 205 -74 -52 -4 -229 -18 -393 -32 -164 -13 -307 -24 -317 -24 -16 0 -16 8 12 103 16 56 31 107 33 113 2 8 35 5 112 -12 59 -13 216 -46 348 -74z m40 -130 c-164 -34 -470 -99 -502 -107 -18 -4 -25 2 -37 32 -9 21 -16 40 -16 44 0 4 28 8 63 9 34 2 170 14 302 26 326 32 361 31 190 -4z m220 21 c-6 -5 -62 -29 -126 -55 -64 -25 -269 -111 -454 -191 -186 -80 -340 -144 -341 -142 -2 2 14 44 35 93 21 49 41 96 44 105 3 9 20 19 39 22 32 5 103 20 503 106 105 22 210 47 235 55 54 17 78 20 65 7z m-100 -69 c-15 -13 -527 -294 -528 -290 -1 2 -8 14 -15 26 -7 13 -12 25 -10 27 2 2 102 46 223 98 121 53 245 107 275 121 61 27 69 30 55 18z"/> <path d="M1961 751 c-22 -31 -27 -51 -12 -51 12 0 51 54 51 69 0 20 -18 11 -39 -18z"/> <path d="M995 735 c-23 -19 -27 -27 -17 -33 9 -6 23 0 43 19 16 15 29 30 29 33 0 14 -27 4 -55 -19z"/> <path d="M1120 751 c0 -15 69 -51 76 -40 3 6 4 12 3 13 -45 34 -79 46 -79 27z"/> <path d="M1227 643 c-9 -17 6 -83 19 -83 15 0 17 12 8 59 -6 29 -18 40 -27 24z"/> <path d="M1846 621 c-37 -39 -15 -53 25 -15 16 15 29 31 29 36 0 17 -28 7 -54 -21z"/> <path d="M946 622 c-8 -13 25 -72 40 -72 18 0 18 10 -2 48 -15 32 -28 40 -38 24z"/> <path d="M1723 543 c-18 -9 -33 -23 -33 -30 0 -17 2 -16 45 4 19 9 35 23 35 30 0 16 -7 16 -47 -4z"/> <path d="M185 530 c-7 -11 41 -70 57 -70 17 0 7 28 -21 54 -20 19 -31 24 -36 16z"/> <path d="M1055 510 c-6 -9 9 -18 63 -34 36 -12 27 20 -9 33 -39 14 -46 14 -54 1z"/> <path d="M1568 488 c-37 -10 -47 -21 -30 -32 16 -9 82 15 82 29 0 17 0 17 -52 3z"/> <path d="M1195 459 c-9 -17 -14 -38 -10 -47 5 -14 9 -12 21 11 13 25 18 27 54 21 33 -5 40 -4 40 10 0 11 -9 16 -29 16 -17 0 -33 5 -36 10 -11 18 -24 11 -40 -21z"/> <path d="M1397 463 c-26 -4 -34 -29 -9 -27 7 1 26 2 42 3 19 0 30 6 30 16 0 15 -9 16 -63 8z"/> <path d="M296 412 c-3 -5 7 -18 22 -29 44 -32 50 -34 55 -18 4 9 -6 22 -27 34 -37 23 -43 25 -50 13z"/> <path d="M1086 336 c-40 -33 -25 -52 19 -23 33 21 40 37 19 43 -5 2 -22 -7 -38 -20z"/> <path d="M434 329 c-7 -12 -7 -12 34 -33 31 -16 52 -15 52 3 0 13 -79 40 -86 30z"/> <path d="M945 281 c-18 -4 -31 -14 -33 -25 -3 -13 1 -17 15 -12 10 3 31 8 46 12 15 3 26 11 24 17 -4 14 -16 16 -52 8z"/> <path d="M590 265 c0 -9 9 -15 24 -15 13 0 31 -3 40 -6 10 -4 16 -1 16 9 0 14 -28 27 -62 27 -10 0 -18 -7 -18 -15z"/> <path d="M750 247 c0 -9 13 -13 42 -11 59 3 62 24 4 24 -31 0 -46 -4 -46 -13z"/> </g> </svg> 